<svg width="512" height="512" viewBox="0 0 512 512" fill="none" xmlns="http://www.w3.org/2000/svg">
<path fill-rule="evenodd" clip-rule="evenodd" d="M385.27 328.485C429.856 328.485 466 288.759 466 239.755C466 190.751 429.856 151.025 385.27 151.025C340.684 151.025 304.54 190.751 304.54 239.755C304.54 288.759 340.684 328.485 385.27 328.485ZM387.354 291.361C412.787 291.361 433.405 268.713 433.405 240.775C433.405 212.837 412.787 190.189 387.354 190.189C361.921 190.189 341.304 212.837 341.304 240.775C341.304 268.713 361.921 291.361 387.354 291.361Z" fill="#C3BEB1"/>
<ellipse cx="251.667" cy="397.837" rx="133.603" ry="86.894" fill="#D1CCC0"/>
<rect x="118.064" y="151.025" width="267.206" height="241.916" fill="#D1CCC0"/>
<path fill-rule="evenodd" clip-rule="evenodd" d="M251.478 484.731V151.025H385.27V392.942H385.061C385.2 394.562 385.27 396.194 385.27 397.837C385.27 445.827 325.454 484.731 251.667 484.731C251.604 484.731 251.541 484.731 251.478 484.731Z" fill="#C4BEB1"/>
<rect x="139.668" y="206.915" width="80.3512" height="147.679" fill="#483301"/>
<ellipse cx="179.844" cy="352.146" rx="40.1756" ry="40.7953" fill="#483301"/>
<path fill-rule="evenodd" clip-rule="evenodd" d="M179.93 392.941H179.844V206.915H220.019V352.004L220.02 352.146L220.019 352.287V354.594H219.948C218.704 375.956 201.27 392.896 179.93 392.941Z" fill="#372700"/>
<ellipse cx="251.478" cy="154.901" rx="139.478" ry="94.0332" fill="#483301"/>
<rect x="231.39" y="240.775" width="39.7966" height="90.9735" fill="#483301"/>
<ellipse cx="251.288" cy="331.749" rx="19.8983" ry="20.3977" fill="#483301"/>
<path fill-rule="evenodd" clip-rule="evenodd" d="M251.478 248.934V60.8677C328.509 60.8677 390.955 102.968 390.955 154.901C390.955 206.834 328.509 248.934 251.478 248.934Z" fill="#372700"/>
<path fill-rule="evenodd" clip-rule="evenodd" d="M236.299 90.8572C232.89 84.8543 234.992 77.2241 240.995 73.8146C246.998 70.4052 254.628 72.5075 258.038 78.5104C272.394 103.786 264.73 128.061 257.978 138.581C250.168 153.634 255.316 167.415 258.182 171.645C262.055 177.36 260.562 185.133 254.847 189.006C249.132 192.878 241.359 191.385 237.487 185.67C230.8 175.803 222.683 151.94 235.943 126.767C236.068 126.512 236.203 126.26 236.347 126.011C236.549 125.64 236.755 125.27 236.965 124.899C237.203 124.479 237.462 124.079 237.74 123.698C240.685 118.061 244.276 104.902 236.299 90.8572Z" fill="#C6AC95"/>
<path fill-rule="evenodd" clip-rule="evenodd" d="M242.664 93.4964C239.255 87.4935 241.357 79.8632 247.36 76.4538C253.363 73.0443 260.993 75.1467 264.403 81.1496C278.759 106.425 271.095 130.7 264.343 141.22C256.533 156.273 261.681 170.055 264.548 174.285C268.42 180 266.927 187.772 261.212 191.645C255.497 195.517 247.724 194.024 243.852 188.309C237.166 178.442 229.048 154.58 242.308 129.406C242.434 129.151 242.568 128.899 242.713 128.65C242.914 128.28 243.12 127.909 243.33 127.538C243.569 127.118 243.828 126.718 244.105 126.337C247.051 120.7 250.641 107.541 242.664 93.4964Z" fill="#B89E86"/>
<path fill-rule="evenodd" clip-rule="evenodd" d="M292.075 58.7737C288.666 52.7708 290.768 45.1406 296.771 41.7311C302.774 38.3217 310.404 40.424 313.813 46.4269C328.169 71.7027 320.506 95.9777 313.754 106.498C305.944 121.55 311.092 135.332 313.958 139.562C317.831 145.277 316.337 153.049 310.622 156.922C304.908 160.795 297.135 159.301 293.262 153.586C286.576 143.72 278.459 119.857 291.719 94.6832C291.844 94.4283 291.979 94.1762 292.123 93.9273C292.325 93.5569 292.53 93.1862 292.741 92.8153C292.979 92.3958 293.238 91.9954 293.516 91.6146C296.461 85.9775 300.052 72.8183 292.075 58.7737Z" fill="#C6AC95"/>
<path fill-rule="evenodd" clip-rule="evenodd" d="M297.495 60.469C294.085 54.4661 296.187 46.8359 302.19 43.4264C308.193 40.017 315.823 42.1194 319.233 48.1222C333.589 73.3981 325.925 97.673 319.173 108.193C311.364 123.245 316.511 137.027 319.378 141.257C323.25 146.972 321.757 154.745 316.042 158.617C310.327 162.49 302.555 160.997 298.682 155.282C291.996 145.415 283.878 121.552 297.138 96.3784C297.264 96.1236 297.398 95.8715 297.543 95.6227C297.744 95.2522 297.95 94.8815 298.161 94.5106C298.399 94.0911 298.658 93.6907 298.935 93.3099C301.881 87.6728 305.471 74.5136 297.495 60.469Z" fill="#B89E86"/>
<path fill-rule="evenodd" clip-rule="evenodd" d="M181.469 43.6756C178.06 37.6727 180.162 30.0424 186.165 26.633C192.168 23.2235 199.798 25.3259 203.208 31.3288C217.563 56.6046 209.9 80.8796 203.148 91.3997C195.338 106.452 200.486 120.234 203.352 124.464C207.225 130.179 205.732 137.951 200.017 141.824C194.302 145.697 186.529 144.203 182.656 138.488C175.97 128.622 167.853 104.759 181.113 79.585C181.238 79.3302 181.373 79.0781 181.517 78.8292C181.719 78.4588 181.924 78.0881 182.135 77.7171C182.373 77.2977 182.632 76.8973 182.91 76.5164C185.855 70.8793 189.446 57.7201 181.469 43.6756Z" fill="#C6AC95"/>
<path fill-rule="evenodd" clip-rule="evenodd" d="M186.889 45.3714C183.48 39.3685 185.582 31.7382 191.585 28.3288C197.588 24.9193 205.218 27.0217 208.627 33.0246C222.983 58.3004 215.319 82.5754 208.568 93.0955C200.758 108.148 205.906 121.93 208.772 126.16C212.645 131.875 211.151 139.647 205.436 143.52C199.721 147.392 191.949 145.899 188.076 140.184C181.39 130.317 173.273 106.454 186.533 81.2808C186.658 81.026 186.793 80.7739 186.937 80.525C187.138 80.1546 187.344 79.7839 187.555 79.4129C187.793 78.9935 188.052 78.5931 188.33 78.2122C191.275 72.5751 194.866 59.4159 186.889 45.3714Z" fill="#B89E86"/>
<path fill-rule="evenodd" clip-rule="evenodd" d="M251.478 352.145V240.775H271.565V331.674L271.565 331.749C271.565 343.014 262.657 352.146 251.667 352.146C251.604 352.146 251.541 352.146 251.478 352.145Z" fill="#372700"/>
</svg>
